/* XPM */
static char *f0fc14c83e6342a6eb6773803222b9416Pv6Rax2YtFb1HVf[] = {
/* columns rows colors chars-per-pixel */
"32 32 144 2 ",
"   c None",
".  c #4B423E",
"X  c #444444",
"o  c #4E4542",
"O  c #4F4845",
"+  c gray31",
"@  c #534A45",
"#  c #574E4A",
"$  c #584F4A",
"%  c #50504F",
"&  c #5C524C",
"*  c #545453",
"=  c #5C5454",
"-  c #585857",
";  c #5C5C5B",
":  c #62564F",
">  c #605651",
",  c #645A55",
"<  c #695E57",
"1  c #665E5B",
"2  c #685F5A",
"3  c #61605F",
"4  c #6D625C",
"5  c #73665E",
"6  c #646463",
"7  c #686364",
"8  c #6F6967",
"9  c #626068",
"0  c #6B666A",
"q  c #6F6B6E",
"w  c #716760",
"e  c #726A65",
"r  c #7A6F67",
"t  c #726C69",
"y  c #7D7167",
"u  c #77716D",
"i  c #7B726D",
"p  c #747274",
"a  c #7C7572",
"s  c #7E7875",
"d  c #717079",
"f  c #7C7B7B",
"g  c #80746C",
"h  c #86796F",
"j  c #817771",
"k  c #837C77",
"l  c #837E7B",
"z  c #8E8277",
"x  c #84817F",
"c  c #8A827C",
"v  c #92877D",
"b  c #6D7186",
"n  c #777882",
"m  c #7C7B85",
"M  c #767A8A",
"N  c #848484",
"B  c #8B8783",
"V  c #8D8884",
"C  c #8C8B8A",
"Z  c #948B84",
"A  c #998E85",
"S  c #908C89",
"D  c #9B9187",
"F  c #91908F",
"G  c #9C938B",
"H  c #83899C",
"J  c #959493",
"K  c #999694",
"L  c #9A9897",
"P  c #9E9E9D",
"I  c #A1968C",
"U  c #A2998F",
"Y  c #A49C95",
"T  c #A99F94",
"R  c #A39F9A",
"E  c #A2A19E",
"W  c #ACA49C",
"Q  c #A3A3A2",
"!  c #AAA7A3",
"~  c #ABA9A6",
"^  c #AEADAB",
"/  c #B3ADA5",
"(  c #B2AEAA",
")  c #B4B1AD",
"_  c #BCB5AC",
"`  c #BEB8AF",
"'  c #B3B3B2",
"]  c #BAB6B3",
"[  c #BDB9B5",
"{  c #BDB8B5",
"}  c #BEB9B5",
"|  c #BEB9B6",
" . c #BCB8B3",
".. c #BDB9B8",
"X. c #BEB9B8",
"o. c #BEBCB8",
"O. c #BCBCBA",
"+. c #C1B3B4",
"@. c #C2B4B4",
"#. c #C2B5B5",
"$. c #C1BCB6",
"%. c #C2BDB4",
"&. c #C0BCB9",
"*. c #C2BCBB",
"=. c #C1BEBB",
"-. c #C0BEBD",
";. c #C0BFBD",
":. c #C2BFBC",
">. c #C4BCBC",
",. c #C1BEBA",
"<. c #C9BCBC",
"1. c #C7C1B6",
"2. c #C8C2B6",
"3. c #C4C1BD",
"4. c #C5C1BF",
"5. c #C4C2BE",
"6. c #C5C1BB",
"7. c #CAC5BB",
"8. c #C6C3C0",
"9. c #C6C3C2",
"0. c #C7C5C4",
"q. c #C6C5C3",
"w. c #CBC3C4",
"e. c #C9C6C4",
"r. c #CCC7C7",
"t. c #CAC6C0",
"y. c #CAC9C6",
"u. c #CBC9C3",
"i. c #CDC8C8",
"p. c #CECBC9",
"a. c #CECDCB",
"s. c #CFCDCD",
"d. c #CCCCCB",
"f. c #D1CCC4",
"g. c #D2CFC9",
"h. c #D1D0CE",
"j. c #D2D1CE",
"k. c #D5D4D2",
"l. c #D5D5D3",
"z. c #D8D7D4",
"x. c #DAD8D5",
"c. c #DCDBD9",
"v. c #E1E0DF",
"b. c #E1E1E0",
/* pixels */
"                        X * ; 3 3 ; * X                         ",
"                  X 3 f C L P P P P L C f 3 X                   ",
"              X 1 f L Q Q Q Q Q Q Q Q Q Q P B 6 X               ",
"            + f C V l L ! Q Q Q Q Q Q Q Q Q Q P f %             ",
"          - C R B l r p E Q Q Q Q Q Q Q Q E Q Q P C -           ",
"        - J Q E j e e , f Q ! Q Q Q Q Q Q Q K C J P J -         ",
"      + C Q Q E p t k i p Y / X.' ^ ^ ^ Q S a Z S P Q C +       ",
"    X m Q Q Q Q s 2 a V K D D A B G R W J a i k V Q Q Q f X     ",
"    6 P Q Q Q Q p & v G v g y 5 < i r v U Y c c K Q Q Q P 6     ",
"  X C Q Q Q Q Q f e Z y 4 > # @ 4 J k y z T G i R Q Q Q Q N X   ",
"  ; P Q Q Q Q Q Z h 4 , 0 = o . l O.l @ , h D c Q Q Q Q Q E 3   ",
"  f Q Q Q Q Q ^ D 4 @ 1 H b 9 o Q k.e . = 5 h L Q Q Q Q Q Q f   ",
"X C Q Q Q Q Q ' Z 5 $ # q d ; s e.s.t d M m 5 R Q Q Q Q Q Q C X ",
"- L Q Q Q Q ~ ) A g , 4 4 j K X.+.<.L 7 n 7 : A ^ Q Q Q Q Q L * ",
"; P Q Q E E ^ _ G z 5 e D  .s.r.+.#.p.W i = 4 U ' Q Q Q Q Q P ; ",
"3 P Q Q Q Q ' [ I v c Z W { { ] >.w.r.k.[ c g E ' Q Q Q Q Q P 3 ",
"; P Q Q Q Q ;.%.W U D v U W )  .9.e.*.9.` D D / 1.Q Q E Q Q P 3 ",
"; P Q Q Q ~ y.5.%./ W W ! )  .,.-.9.*.) / U I _ y.~ Q Q Q Q P ; ",
"* L Q Q Q ^ 8.%.1.%.%.%.%.%.%.,.*.6.u. .` %.%.p.q.Q Q Q Q Q L * ",
"X C Q Q E ^ _ / ` %.1.1.%.%.6.u.u.7.u.f.7.g.j.z.q.Q Q Q Q Q C X ",
"  n Q Q Q ^ ( / ` %.%.%.1.2.7.7.u.7.7.e.g.j.z.x.O.Q Q Q Q Q f   ",
"  3 E Q Q ^ / _ %.1.1.%.1.1.2.2.7.1.6.y.j.x.z.z.q.Q Q Q Q P 3   ",
"  X N Q Q ~ W /  .%.%.%.f.g.6.1.7.g.z.s.p.k.l.z.l.^ E Q Q C X   ",
"    6 E Q Y Y / )  .*.c.O. .c.,.x.d.] b.t.p.h.j.s.O.Q Q E 6     ",
"    X m Q Y E W ^ ) 7.c.N E ;.Q b.F E d.! q.y.y.0.' Q Q m X     ",
"      % C E E E ! ^ ;.s.K ;.' ~ c.J O.Q P ' O.O.O.' Q C %       ",
"        - F E E Q ~ O.s.J q.b.' c.J ' ' ^ ^ ^ ^ ^ ' J -         ",
"          - F Q Q Q ' l.J L k.L l.P Q s.~ Q ~ Q Q F ;           ",
"            % x P Q Q d.d.d.d.N ;.s.d.0.N Q Q P f %             ",
"              X 6 C E P P J n C P P L n F P B 6 X               ",
"                  X 3 f N C L P P L C N f 3 X                   ",
"                        X * ; 3 3 ; * X                         "
};
