/* XPM */
static char *faeb01a37a6143fd9de7100546a51c427DMObWq0O2TaTAKV[] = {
/* columns rows colors chars-per-pixel */
"16 16 150 2 ",
"   c None",
".  c #585252",
"X  c #625955",
"o  c #675D56",
"O  c #675D59",
"+  c #666665",
"@  c #676767",
"#  c #686867",
"$  c #69676F",
"%  c #686868",
"&  c #6A6A69",
"*  c #6B6B6A",
"=  c #716762",
"-  c #706967",
";  c #7A6F67",
":  c #756F6B",
">  c #706F6E",
",  c #70706F",
"<  c #77716E",
"1  c #79736F",
"2  c #7B736F",
"3  c #6D6A70",
"4  c #727271",
"5  c #737372",
"6  c #777273",
"7  c #7F7874",
"8  c #7B7B7B",
"9  c #7C7A78",
"0  c #7D7D7C",
"q  c #837972",
"w  c #877D76",
"e  c #867D77",
"r  c #887E76",
"t  c #8A7F77",
"y  c #847E7A",
"u  c #857F7A",
"i  c #827E7F",
"p  c #80807F",
"a  c #89827E",
"s  c #8F857E",
"d  c #838382",
"f  c #8D8680",
"g  c #8A8A89",
"h  c gray54",
"j  c #8B8B8A",
"k  c #928A83",
"l  c #938C86",
"z  c #988E84",
"x  c #998E84",
"c  c #928D8D",
"v  c #918F8E",
"b  c #96918D",
"n  c #929190",
"m  c #949493",
"M  c #959493",
"N  c #979594",
"B  c #989693",
"V  c #999795",
"C  c #989896",
"Z  c #999998",
"A  c #9B9A98",
"S  c #9D9B9A",
"D  c #9D9D9C",
"F  c #9D9D9D",
"G  c #A59C93",
"H  c #A09A95",
"J  c #A49D97",
"K  c #A29F9D",
"L  c #A09F9E",
"P  c #A0A09F",
"I  c #A6A39E",
"U  c #A7A39E",
"Y  c #A8A19B",
"T  c #ADA59B",
"R  c #ADA59E",
"E  c #A1A1A0",
"W  c #A2A1A0",
"Q  c #A2A2A1",
"!  c #A2A2A2",
"~  c #A3A3A2",
"^  c #A7A4A1",
"/  c #A4A4A3",
"(  c #A6A5A3",
")  c #A4A4A4",
"_  c #A5A5A4",
"`  c #A7A6A4",
"'  c #A6A6A5",
"]  c gray65",
"[  c #A7A7A6",
"{  c #ADA7A0",
"}  c #AFA8A1",
"|  c #A9A8A6",
" . c #ACAAA6",
".. c #A9A9A8",
"X. c #ABAAA8",
"o. c #ABABA9",
"O. c #ABABAA",
"+. c #ACABA8",
"@. c #AEAEAD",
"#. c #AFAEAD",
"$. c #B1AAA1",
"%. c #B1AEA9",
"&. c #B5AFA8",
"*. c #B4B0AB",
"=. c #B2B1B0",
"-. c #B2B2B0",
";. c #B5B4B1",
":. c #B6B5B3",
">. c #B6B5B4",
",. c #B6B6B5",
"<. c #BCB7B1",
"1. c #BCB7B4",
"2. c #BDB8B3",
"3. c #B9B8B7",
"4. c #BABAB8",
"5. c #BDBBB9",
"6. c #BFBBB9",
"7. c #BDBDBC",
"8. c #C0BBB3",
"9. c #C1BBB3",
"0. c #C2BCB3",
"q. c #C0B8B7",
"w. c #C4BEB4",
"e. c #C5BFB7",
"r. c #C0BDB9",
"t. c #C3BFBC",
"y. c #C3BEBD",
"u. c #C6BCBC",
"i. c #C8C1B6",
"p. c #C4C0BA",
"a. c #C1C1BF",
"s. c #C4C1BC",
"d. c #C5C1BF",
"f. c #C7C4BE",
"g. c #C9C4BB",
"h. c #C8C3BD",
"j. c #C8C4BD",
"k. c #C9C5BF",
"l. c #CAC5BE",
"z. c #C1C1C0",
"x. c #C2C2C0",
"c. c #C4C3C0",
"v. c #CCC8C1",
"b. c #CBC8C4",
"n. c #CECBC4",
"m. c #CCCBC9",
"M. c #CECDCB",
"N. c #D4D3CE",
"B. c #D4D3D1",
"V. c #D8D7D4",
/* pixels */
"          & 8 d d 8 &           ",
"      + 9 v ~ ] ~ ~ D j #       ",
"    , M y : N ] / / ~ A n ,     ",
"  # Z P < 7 l J H U b y V Z #   ",
"  g / P 2 r ; o 1 r z s S ~ g   ",
"& D / / w O 3 . K & = l ~ ~ D & ",
"8 ~ ~  .a X 1 c q.i 3 w ] ~ ~ 9 ",
"d / / *.x q J y.y.q.a s  .~ ] d ",
"d Q [ 7.$.G } 2.d.u.R T ;.~ ~ d ",
"0 Q  .<.2.0.0.p.j.h.p.n.:.~ ~ 9 ",
"& D  .&.0.i.i.g.j.v.N.V.;.~ D & ",
"  h / R <.g.d.d.b.m.M.B.z.] g   ",
"  # B I %.d.o.7.3.#.>.z.4.Z @   ",
"    , C ] 7.*.z.>.-.o.O.K 5     ",
"      # g ] #.D #.] M g &       ",
"          % 5 0 p 5 #           "
};
