/* XPM */
static char *_79e8d1d2aa14d638f8c50acc433449dLwxlMY1Oh7JoZrnH[] = {
/* columns rows colors chars-per-pixel */
"64 64 174 2 ",
"   c None",
".  c #2E2E2E",
"X  c #30302F",
"o  c #343434",
"O  c #3A3A39",
"+  c #463E3B",
"@  c #483F3B",
"#  c #40403F",
"$  c #4A423E",
"%  c #444443",
"&  c #4E4542",
"*  c #484847",
"=  c #4C4C4B",
"-  c #514742",
";  c #544A45",
":  c #584D47",
">  c #554D49",
",  c #594E49",
"<  c #5B524D",
"1  c #524C50",
"2  c #555554",
"3  c #5D5552",
"4  c #585857",
"5  c #5E5D5C",
"6  c #61554F",
"7  c #625751",
"8  c #635A55",
"9  c #6A5D55",
"0  c #655D5A",
"q  c #695F5A",
"w  c #62605F",
"e  c #6C625C",
"r  c #71655D",
"t  c #75685F",
"y  c #5D5C68",
"u  c #666564",
"i  c #6C6562",
"p  c #61606C",
"a  c #6B6B6A",
"s  c #716761",
"d  c #746A64",
"f  c #7A6D65",
"g  c #746D6A",
"h  c #796F69",
"j  c #7E7066",
"k  c #73706F",
"l  c #7B726D",
"z  c #646575",
"x  c #6E6D76",
"c  c #666A7F",
"v  c #6B6D7D",
"b  c #746F71",
"n  c #757574",
"m  c #7B7572",
"M  c #7D7876",
"N  c #78757A",
"B  c #7D7C7B",
"V  c #73727B",
"C  c #82756B",
"Z  c #85786E",
"A  c #837A74",
"S  c #897E75",
"D  c #847E7A",
"F  c #8E8176",
"G  c #86817D",
"H  c #8C827B",
"J  c #92867C",
"K  c #95897E",
"L  c #777A87",
"P  c #727688",
"I  c #7A7F92",
"U  c #7E8497",
"Y  c #7C849E",
"T  c #838282",
"R  c #8B8582",
"E  c #8D8986",
"W  c #8C8B8A",
"Q  c #948B83",
"!  c #998E84",
"~  c #918D8A",
"^  c #988F88",
"/  c #9C9186",
"(  c #92908F",
")  c #9C938B",
"_  c #83889B",
"`  c #949493",
"'  c #999794",
"]  c #9A9896",
"[  c #9C9C9B",
"{  c #A1968C",
"}  c #A3998F",
"|  c #A3998E",
" . c #A09790",
".. c #A29991",
"X. c #A49C93",
"o. c #A99F93",
"O. c #A29E9B",
"+. c #B69D9E",
"@. c #AAA197",
"#. c #A0A09F",
"$. c #A2A19E",
"%. c #ABA39A",
"&. c #ACA49C",
"*. c #B2A99E",
"=. c #828BA5",
"-. c #8C93A6",
";. c #8992AA",
":. c #959BAB",
">. c #909AB0",
",. c #98A1B6",
"<. c #A1A1A0",
"1. c #A2A2A1",
"2. c #A3A3A2",
"3. c gray64",
"4. c #A4A4A3",
"5. c #A6A6A5",
"6. c #A3A3A2",
"7. c #A9A6A4",
"8. c #ABA9A5",
"9. c #AAAAA9",
"0. c #ACACAA",
"q. c #B3A2A0",
"w. c #BBA6A7",
"e. c #B3ACA4",
"r. c #B2AEAA",
"t. c #B9AFAC",
"y. c #B7B0A5",
"u. c #BBB3A7",
"i. c #B2B0AD",
"p. c #B4B1AD",
"a. c #BAB5AF",
"s. c #BBB5AC",
"d. c #BFB8AE",
"f. c #A0AABE",
"g. c #B2B2B1",
"h. c #B6B6B5",
"j. c #B4B4B3",
"k. c #BAB6B3",
"l. c #BDB9B4",
"z. c #BDBCBB",
"x. c #C0A7AA",
"c. c #C0AFAF",
"v. c #C1BAAE",
"b. c #C2BDB7",
"n. c #C2BDB4",
"m. c #C3B7B9",
"M. c #C2BEBA",
"N. c #C8BEBF",
"B. c #C7C1B6",
"V. c #C8C2B7",
"C. c #C5C1BB",
"Z. c #CAC5BC",
"A. c #CDC8BE",
"S. c #C5C4C2",
"D. c #CAC5C3",
"F. c #CCC9C4",
"G. c #CEC7C8",
"H. c #CDCCCA",
"J. c #D1CDC6",
"K. c #D1CECB",
"L. c #D3D1CD",
"P. c #D8D4CD",
"I. c #D5D4D2",
"U. c #D8D7D4",
"Y. c #DAD9D6",
"T. c #DDDCDB",
"R. c #E0DDD7",
"E. c #E0DFDD",
"W. c #E3E3E3",
"Q. c #E9E8E6",
"!. c #EBEBEB",
"~. c #F0F0EF",
"^. c #F4F4F4",
"/. c #FCFCFC",
/* pixels */
"                                                    . o o o O O O O o o X X                                                     ",
"                                            . o O = 2 5 u k n n n n k u w 2 = # o .                                             ",
"                                        O # 2 a B W ' ] #.#.$.#.#.#.#.#.] ` W B a 2 # o                                         ",
"                                  X O = u B ` [ #.3.1.3.#.3.3.5.3.3.3.#.3.3.3.#.[ ( T u = O X                                   ",
"                                o = a T [ $.3.3.3.3.5.#.5.#.5.#.4.#.4.#.3.3.3.#.#.4.#.[ W k = o                                 ",
"                            o * u D E W ` 3.3.3.3.3.#.3.#.5.#.5.4.3.4.4.3.3.4.4.4.4.4.4.#.#.W a * o                             ",
"                          O 2 G W W W R M W 3.3.3.3.3.3.4.#.5.#.4.#.4.4.4.#.4.#.#.4.#.4.3.3.3.[ T 4 o                           ",
"                      . # u ( #.W E ( R A g W 3.3.3.#.3.4.3.#.5.4.4.#.4.4.4.4.4.4.4.4.4.4.#.#.3.[ ( a % .                       ",
"                    . * n ' 3.#.R E W H m s i ' 4.4.#.3.3.4.3.3.4.4.4.#.4.4.#.4.#.4.#.4.3.3.#.#.3.#.' n * .                     ",
"                  o = B ] 1.3.3.G D G D m e 7 a $.4.4.3.3.$.3.3.#.4.4.4.4.#.4.4.4.4.3.4.3.3.3.#.' ] #.[ N * o                   ",
"                . = B [ 3.3.3.3.D m h l g i 8 < M 3.3.3.3.#.3.3.4.#.4.#.4.3.4.4.4.#.#.4.3.#.( W ` ` [ 3.[ T = .                 ",
"              . * B [ 3.3.3.3.3.D s 0 e i i 0 7 < G 5.5.5.7.3.1.4.4.4.4.4.4.$.4.4.4.4.4.#.G H E ( ( ] 3.#.[ B * .               ",
"              # n [ #.5.3.3.3.#.M q 0 a M T m e w i O.i.j.M.z.h.0.4.#.4.#.4.#.#.4.#.4.] n m E W ( E ] 3.#.4.[ n #               ",
"            O a ] 4.4.#.#.3.3.5.G i l D W R G l m H ( ! ..e.Z.K.S.h.0.g.g.h.h.p.0.5.( s d M Q ( Q R #.3.3.3.3.] a O             ",
"          o 4 ( #.3.#.5.#.5.#.5.~ 0 a h m i m R ( ) | | ....+. ./ @.a.s.b.b.a.i.i.G d e d l A H H ( 3.3.3.3.3.1.W 4 o           ",
"          % T #.3.3.5.#.5.#.3.4.` 3 < 3 h G R ..X.| / ! K J H C f t Z Z F / ) } / G J G G m h A M ] 3.3.3.3.3.1.$.T *           ",
"        O a ] 1.4.#.4.#.4.4.4.4.' > > : d $.&.@.} ! S C Z A h d r 7 r h d f J | | @.| ) Q T E Q R #.4.4.4.4.3.4.4.[ a o         ",
"      . = W 1.3.4.4.4.4.#.4.4.4.] > $ e G @.] K S C C r h d 0 q q 7 N R d s C ^ / @.&.&.E h G E ( 5.$.4.#.4.#.4.3.$.W = X       ",
"      O a [ 3.3.4.#.3.4.4.#.4.#.#.2 ; A ) K F j d 9 7 7 9 < ; 6 < w ( ..C h C S J / @.e.q.R s h ] 5.4.3.4.4.4.#.#.3.#.k O       ",
"      = W 3.3.3.4.4.#.4.4.4.4.4.4.w < Q K Z t r q 9 6 , , @ @ - ; m 4.$.E m s d Z S J %.e.S q D 4.#.3.3.#.4.4.4.4.3.#.W =       ",
"    o u [ 3.3.#.4.#.4.#.3.4.3.4.4.h Z F C 9 6 8 9 9 7 ; - + $ & , ` N.9.' g , ; e e C K &.| f Q 4.4.4.4.3.#.4.4.#.3.3.[ u o     ",
"    % G 3.3.3.3.4.4.4.4.#.4.#.0.) J F C r : : e z P y 1 - $ $ & 0 m.I.D.O.0 $ @ : 7 r Z ! { s ( 4.4.#.4.4.4.#.4.3.3.3.$.T %     ",
"  X 2 ( 5.#.3.#.4.#.4.4.4.4.4.i./ K C 9 ; & < n >.=.y P z > $ $ x H.T.L.W 2 @ $ , 9 t t Z K D 1.3.4.3.4.4.4.4.4.3.3.3.3.` 2 X   ",
"  o a #.#.5.#.5.4.4.#.4.#.4.0.M.| J r ; ; ; > e >.Y z I Y 4 $ > W I.E.S.g & @ - ; 3 8 9 r F X.0.#.4.#.4.#.4.#.4.4.#.3.3.[ u O   ",
"  # B #.#.4.4.4.4.4.4.4.3.1.h.b.{ J d 6 ; > ; > b -.;.U V < 1 b g.I.E.N.g $ 4 L p P _ i 9 C o.t.5.#.5.#.5.#.5.#.4.3.#.5.#.B #   ",
"  = W 3.3.4.4.#.4.#.4.#.4.4.z.8.! H A e > & ; ; ; e i 3 ; & g 0.G.K.U.I.W > W >.v _ f.N 9 9 ! a.5.5.#.5.#.5.#.5.4.#.3.4.4.W =   ",
"X 2 ` 3.#.4.#.4.#.4.4.4.3.4.C.&./ K F j d i 0 8 3 < 8 8 w m 5.N.N.N.G.L.z.w 8 T -.;.U e , 6 Z e.p.3.5.#.5.#.5.#.4.4.4.4.3.` 2 . ",
"X 5 [ 3.4.4.4.4.4.4.4.#.4.0.C.&./ K A r < < e h l C Q ..z.H.H.N.q.+.x.c.G.( $ - i a 5 ; ; 7 f &.l.4.#.3.4.4.#.3.4.#.4.#.3.[ 5 X ",
"o u [ 3.3.3.#.4.4.4.#.4.#.h.S.&.{ ) ! F d e e r S ^ 8.D.L.I.L.L.N.w.+.t.G.K.] g 8 3 ; $ ; e F 8.C.4.3.3.5.#.5.4.5.#.3.4.3.[ a o ",
"O k #.3.3.3.4.4.4.#.4.4.#.z.A.&.| / J S h e i A ^ &.l.D.G.G.D.N.m.m.m.G.I.Y.Y.N.] l q e s m Q y.C.4.3.3.#.5.#.4.#.5.#.4.3.#.k o ",
"O n #.1.3.3.3.4.4.4.4.4.4.z.A.*.| K J F A j l Q ..q.z.S.S.M.k.k.m.N.N.G.G.I.U.U.F.$.H A m Z / y.F.5.3.3.5.#.5.#.5.#.3.#.3.#.n o ",
"O n #.1.3.#.3.#.3.#.4.#.4.F.S.y.@.! K K / ' X.X...o.y.M.z.9.r.m.N.N.N.G.N.S.H.I.L.p.) Z d j K *.F.0.1.3.#.5.#.3.4.4.3.3.3.3.n O ",
"O n #.4.4.#.4.#.3.3.3.3.9.L.Z.e.&...) / { Q K K / o.&.s.i.&.p.z.S.N.S.H.S.k.S.K.L.i.] ) Q Q @.u.F.h.3.3.1.4.1.4.1.4.1.4.1.1.n O ",
"O n #.#.4.4.4.4.#.3.3.3.z.L.C.l.u.&.o...^ F S ! ..{ o.7.0.a.l.z.S.z.S.G.S.p.l.G.C.&.) / ! @.*.v.P.S.3.3.4.1.4.1.4.1.4.1.4.1.n O ",
"o k #.#.4.#.4.4.4.3.3.3.H.H.C.z.M.d.e.e.@.| / { X.{ 7.r.k.M.n.M.S.z.D.D.S.h.h.z.y.&.@.^ K / @.v.P.S.4.3.1.4.1.4.1.4.1.4.1.#.a O ",
"o a #.4.4.4.#.3.#.3.3.5.H.H.C.B.b.l.u.t.d.d.l.l.a.k.b.l.l.l.z.z.z.N.M.S.S.M.r.q.&.*.&.@.} @.*.V.Y.D.5.#.4.1.4.1.4.1.4.1.1.[ a o ",
"X w ] 3.4.4.4.4.5.#.4.i.L.F.C.M.b.M.b.d.v.n.n.n.M.C.M.n.l.v.l.M.l.l.l.C.D.C.r.e.*.y.y.y.*.u.B.H.Y.h.1.4.1.4.1.4.1.4.3.4.1.] w o ",
"X 2 ` 3.#.4.#.4.#.5.1.p.G.M.k.l.b.n.M.B.n.n.v.v.u.v.u.n.l.z.C.C.C.M.M.Z.K.K.Z.n.d.v.B.B.A.J.K.I.I.g.1.1.4.1.4.1.4.1.3.4.1.` 2 . ",
"  * W 3.4.4.3.#.3.3.1.i.C.y.u.u.l.b.b.B.n.V.V.V.v.v.n.n.B.n.C.F.F.D.D.Z.J.K.K.J.A.A.J.K.P.L.I.Y.Y.z.1.4.1.4.1.4.1.4.4.$.#.H *   ",
"  # B 1.#.3.3.3.3.3.3.g.M.7.e.e.u.d.d.B.n.n.n.n.V.V.n.V.C.A.C.A.H.D.Z.Z.J.A.J.F.J.J.K.P.P.I.U.U.Y.h.1.1.4.1.4.1.4.1.4.4.#.U #   ",
"  o a [ 3.3.#.3.4.3.3.z.l.&.e.e.u.u.d.u.d.n.n.V.B.B.V.V.A.A.A.A.F.F.F.Z.A.A.Z.Z.A.J.L.P.U.U.I.U.I.0.1.1.1.4.1.4.1.4.4.1.[ a o   ",
"  X 2 ` 3.3.3.3.#.3.#.l.y.&.*.a.b.b.n.C.b.n.n.v.B.V.V.V.A.A.A.A.Z.A.Z.Z.Z.V.Z.D.J.L.U.U.U.Y.Y.U.H.5.4.4.4.1.4.1.4.1.1.4.` 2 X   ",
"    % T #.5.#.5.3.3.3.z.r.e.a.l.n.C.C.B.Z.n.n.v.B.B.A.V.B.V.V.A.Z.Z.Z.Z.C.D.Z.H.L.U.U.Y.Y.U.U.Y.H.9.4.1.1.4.1.4.1.4.1.#.G %     ",
"    o u [ #.5.#.3.3.7.k.&.8.y.a.d.l.B.Z.Z.V.n.V.v.d.B.V.B.B.V.V.Z.Z.n.n.C.D.F.H.J.L.U.U.U.U.U.U.Y.F.5.1.4.1.4.1.4.1.4.[ u o     ",
"      1 W 3.#.4.3.3.0.8.$.&.e.u.l.b.B.b.n.C.n.v.d.u.d.v.n.B.n.n.M.C.C.M.C.D.S.F.H.H.L.I.U.U.U.I.U.L.g.3.1.4.1.4.1.1.1.W =       ",
"      o k [ 4.4.3.5.p.%.| %.8.p.l.l.l.n.l.n.d.n.L.Y.R.P.Z.n.B.B.C.Z.K.T.W.T.L.F.J.H.L.L.L.I.I.I.I.Y.S.3.3.1.4.1.3.1.#.k O       ",
"      X = W #.4.3.5.8.....$.8.y.y.y.y.k.M.b.b.Q./.!.W.^.^.F.n.C.C.Y./.^.W.~./.L.S.H.H.L.L.I.I.I.L.I.S.5.1.3.3.3.3.1.W 1 X       ",
"        O a ] 4.3.5.%.....%.7.e.e.i.k.l.b.b.E./.h.w w ( ~.Q.r.C.L./.E.B u W Q.~.g.S.H.H.L.L.L.H.H.H.H.9.3.3.3.3.3.] a o         ",
"          * G #.#.3.O.] o.$.&.&.e.j.a.a.l.C.^.W.5 a ( ] I.^.1.p.E./.' 5 ` #.L./.5.0.H.F.H.H.H.H.H.H.z.5.2.2.2.2.#.T *           ",
"          o 4 ( 3.5.O.] O.@.$.7.r.r.y.j.a.S./.S.u 3.l.l.l.$.n $.W.^.B W z.z.S.C.T [ S.S.S.S.S.F.S.S.h.5.2.2.2.1.( 4 o           ",
"            O a ' 3.O.] $.$.$.&.8.5.r.r.g.C./.S.k i.h.l.r.W E 8.Q.^.B ] z.z.g.W B 1.z.h.z.z.z.z.z.z.z.9.2.2.1.] u O             ",
"              # n [ #.$.$.4.$.$.&.5.8.e.i.C./.z.n 0.z.M.b.z.j.i.W.^.B [ h.h.h.g.9.i.h.h.h.h.h.h.z.h.h.g.2.2.[ n #               ",
"              X * B [ #.$.$.$.$.$.5.8.0.9.z./.S.n 5.E.^.^.^.b.5.W.^.B ` p.g.g.p.g.0.i.g.p.g.g.i.g.g.g.g.5.[ B * X               ",
"                X = G [ $.$.$.4.4.$.5.5.5.h./.z.k 5.h.[ H./.O.E W.^.B ` g.0.0.9.9.9.0.0.0.0.0.0.9.9.0.9.6.U = o                 ",
"                  o = B [ 3.4.4.3.4.4.5.3.h./.S.k #.[ B h./.` U E.^.U ~ 5.9.h.L.h.5.5.5.5.5.5.5.5.5.5.3.G = o                   ",
"                    X % n ] #.3.3.3.3.3.3.9.~.W.B [ 1.[ L./.` B L./.] G 3.1.I./.5.( 4.$.4.4.4.3.5.3.[ n $ o                     ",
"                      X # a W 1.3.3.3.3.3.#.I./.z.[ 4.0.W./.T M g.^.U.` 3.g.!.!.a T 3.3.3.3.1.3.#.( a % X                       ",
"                          O 4 T ] 1.3.3.4.#.1.Y.^.!.W.^.^.g.4 U #.z.^.~.W.^./.` 2 ( 3.3.#.3.1.] T 4 o                           ",
"                            o % a W #.3.4.4.[ W [ z.C.g.U ; a ] 1.` ` h.z.g.U * n #.3.3.3.[ W a * X                             ",
"                                o = k W [ #.4.[ U a w 5 w B ' 1.3.1.W n u 5 w B [ 3.$.[ W k = O                                 ",
"                                  X O = u T ( [ [ [ ] ` ] 1.3.3.1.1.1.#.' ' [ [ [ ` T u = O X                                   ",
"                                        o % 2 a B W ` [ #.#.#.#.1.#.#.#.[ ` W B u 2 % o                                         ",
"                                            X O # = 2 w a a n n n n a a w 2 * # O .                                             ",
"                                                    . X o o O O O O O o X X                                                     "
};
